<svg xmlns="http://www.w3.org/2000/svg" width="591" height="615" viewBox="0 0 443.047 461.454" xml:space="preserve" color-interpolation-filters="sRGB" style="fill:none;fill-rule:evenodd;font-size:12px;overflow:visible;stroke-linecap:square;stroke-miterlimit:3">
<style>
  .st1,.st2,.st3{fill:#1f64ff;stroke:none;stroke-linecap:butt;stroke-width:1.70379}
  .st2,.st3{fill:#00b151}
  .st3{fill:none;stroke-width:.75}
  .st4,.st5{fill:#000;font-family:Noto Sans;font-size:1.5em}
  .st5{fill:#fff}
  .st6{fill:none}
  .st7{stroke:#a5a5a5;stroke-width:3.40757}
  .st10,.st11,.st7,.st8{stroke-linecap:butt}
  .st8{fill:#6b6b6b;stroke:#a5a5a5;stroke-width:1.70379}
  .st10,.st11{stroke:#f90f0e;stroke-width:3.40757}
  .st11{fill:#f90f0e;stroke:none;stroke-width:1.70379}
</style>
<g id="shape1-1" transform="translate(313.968 -327.262)">
<path d="M122.65 461.45H3.35c-1.79 0-3.35-2.19-3.35-5.07v-61.86c0-2.87 1.56-5.07 3.35-5.07h119.3c1.79 0 3.35 2.2 3.35 5.07v61.86c0 2.88-1.56 5.07-3.35 5.07Z" class="st1"/></g>
<g id="shape2-3" transform="translate(322.663 -82.333)">
<path d="M115.66 461.45H3.02c-1.71 0-3.02-1.61-3.02-3.46v-65.07c0-1.85 1.31-3.47 3.02-3.47h112.64c1.71 0 3.02 1.62 3.02 3.47v65.07c0 1.96-1.41 3.46-3.02 3.46Z" class="st1"/></g>
<g id="shape3-5" transform="translate(34.885 -324.898)">
<path d="M118.47 461.45H5.84c-3.15 0-5.84-4.73-5.84-10.64V400.1c0-5.74 2.6-10.65 5.84-10.65h112.63c3.16 0 5.85 4.74 5.85 10.65v50.87c0 5.75-2.6 10.48-5.85 10.48Z" class="st2"/></g>
<g id="shape4-7" transform="translate(267.884 -424.704)">
<path class="st3" d="M0 425.454h118v36H0z"/>
<text x="16.12" y="448.85" class="st4">Asking for</text></g>
<g id="shape5-10" transform="translate(44.856 -336.364)">
<path class="st3" d="M0 412.385h104.376v49.069H0z"/>
<text x="7.14" y="442.32" class="st5">Metformin</text></g>
<g id="group6-13" transform="translate(124.31 -108.952)">
<g id="shape7-14" transform="translate(0 -5.622)">
<path d="M81.65 373.71c-11.17 2.21-30.36 9.54-36.12 34.07-8.2 35.27-5.06 47.88-45.53 52.48l179.69 1.19-98.04-87.74Z" class="st6"/>
<path d="M81.65 373.71c-11.17 2.21-30.36 9.54-36.12 34.07-8.2 35.27-5.06 47.88-45.53 52.48l179.69 1.19" class="st7"/></g>
<g id="shape8-17" transform="translate(79.205 -87.404)">
<path d="m0 450.38 10.64 4.26-9.07 6.81L0 450.38Z" class="st8"/></g>
<g id="shape9-19" transform="translate(177.95)">
<path d="M0 461.45 9.94 456l-9.77-5.79L0 461.45Z" class="st8"/></g></g>
<g id="group10-21" transform="translate(124.48 -28.704)">
<g id="shape11-22" transform="translate(0 -5.111)">
<path d="M104.95 461.45c-11.75-1.7-33.9-7.66-46.51-29.13C40.55 401.99 74.97 404.55 0 379.5l104.95 81.95Z" class="st6"/>
<path d="M104.95 461.45c-11.75-1.7-33.9-7.66-46.51-29.13C40.55 401.99 74.97 404.55 0 379.5" class="st7"/></g>
<g id="shape12-25" transform="translate(102.909)">
<path d="m1.02 450.72 8.86 6.3L0 461.45l1.02-10.73Z" class="st8"/></g></g>
<g id="shape13-27" transform="translate(1.704 -79.477)">
<path d="M109.93 461.45H5.42c-2.92 0-5.42-4.77-5.42-10.73v-51.28c0-5.8 2.41-10.74 5.42-10.74h104.51c2.93 0 5.42 4.77 5.42 10.74v51.28c0 5.96-2.41 10.73-5.42 10.73Z" class="st2"/></g>
<g id="shape14-29" transform="translate(8.333 -84.353)">
<path class="st3" d="M0 398.454h102.097v63H0z"/>
<text x="6" y="435.35" class="st5">Metformin</text></g>
<g id="shape15-32" transform="translate(328.086 -338.727)">
<path class="st3" d="M0 412.385h97.764v49.069H0z"/>
<text x="13.3" y="442.32" class="st5">?disease</text></g>
<g id="shape16-35" transform="translate(196.885 -365.858)">
<path class="st3" d="M0 438.608h72v22.846H0z"/>
<text x="11.35" y="456.05" class="st4">treats</text></g>
<g id="shape17-38" transform="translate(189.747 -109.704)">
<path class="st3" d="M0 425.454h83.395v36H0z"/>
<text x="17.05" y="448.85" class="st4">treats</text></g>
<g id="shape18-41" transform="translate(69.204 -226.704)">
<path class="st3" d="M0 425.454h112.5v36H0z"/>
<text x="7.79" y="441.65" class="st4">Constraints</text></g>
<g id="shape19-44" transform="translate(22.811 -154.704)">
<path class="st3" d="M0 425.454h92.786v36H0z"/>
<text x="35.73" y="448.85" class="st4">Result:</text></g>
<g id="shape20-47" transform="translate(333.121 -84.799)">
<path class="st3" d="M0 394.385h97.763v67.069H0z"/>
<text x="21.19" y="422.52" class="st5">Type 2 
<tspan x="12.73" dy="1.2em" style="font-size:1em">diabetes</tspan></text></g>
<g id="group22-51" transform="translate(133.885 -264.001)">
<g id="shape23-52" transform="translate(5.452)">
<path d="M0 417.5c.85 7.15 3.75 16.52 12.44 17.55 14.14 1.7 10.56 26.4 10.56 26.4s6.31-44.98 46.17-46.34c29.14-1.02 39.02-25.39 42.26-38.5L0 417.5Z" class="st6"/>
<path d="M0 417.5c.85 7.15 3.75 16.52 12.44 17.55 14.14 1.7 10.56 26.4 10.56 26.4s6.31-44.98 46.17-46.34c29.14-1.02 39.02-25.39 42.26-38.5" class="st10"/></g>
<g id="shape24-55" transform="translate(0 -41.913)">
<path d="m0 461.45 4.94-10.05 6.3 9.2-11.24.85Z" class="st11"/></g>
<g id="shape25-57" transform="translate(110.746 -82.123)">
<path d="M11.07 461.45 7.5 450.72 0 459.24l11.07 2.21Z" class="st11"/></g></g>
<g id="group26-59" transform="translate(371.345 -403.321)">
<g id="shape27-60" transform="rotate(92.932 28.962 438.99)">
<path d="M0 461.45h46.63" class="st10"/></g>
<g id="shape28-63">
<path d="m0 454.09 5.28 7.36 5.96-6.98L0 454.09Z" class="st11"/></g></g>
<g id="group29-65" transform="translate(167.635 -356.958)">
<g id="shape30-66" transform="translate(0 -5.622)">
<path d="M0 461.45h124.86" class="st7"/></g>
<g id="shape31-69" transform="translate(123.657)">
<path d="m0 461.45 6.84-5.62L0 450.21v11.24Z" class="st8"/></g></g>
<g id="shape32-71" transform="translate(226.885 -172.704)">
<path d="M48.73 461.45H5.11c-2.72 0-5.11-2.21-5.11-5.11v-49.75c0-2.89 2.39-5.11 5.11-5.11h43.62c2.89 0 5.11 2.22 5.11 5.11v49.75c0 2.73-2.22 5.11-5.11 5.11Z" class="st1"/></g>
<g id="shape33-73" transform="translate(245.045 -1.704)">
<path d="M48.73 461.45H5.11c-2.9 0-5.11-2.38-5.11-5.11v-49.75c0-2.89 2.21-5.11 5.11-5.11h43.62c2.72 0 5.11 2.22 5.11 5.11v49.75c0 2.73-2.22 5.11-5.11 5.11Z" class="st1"/></g>
</svg>